<svg width="87" height="59" viewBox="0 0 87 59" fill="none" xmlns="http://www.w3.org/2000/svg">
<g filter="url(#filter0_bd_46_16)">
<path d="M9.97216 50.18C8.31616 50.18 6.98416 49.694 5.97616 48.722C4.93216 47.786 4.41016 46.526 4.41016 44.942C4.41016 44.618 4.48216 44.168 4.62616 43.592C4.73416 43.016 4.96816 42.476 5.32816 41.972C5.68816 41.504 6.19216 41.234 6.84016 41.162V41.486C6.84016 42.602 7.11016 43.376 7.65016 43.808C8.19016 44.24 8.80216 44.456 9.48616 44.456C10.5662 44.456 11.5562 44.132 12.4562 43.484C13.3922 42.836 14.1842 42.116 14.8322 41.324C15.7322 40.208 16.6322 38.894 17.5322 37.382C18.4682 35.87 19.3502 34.304 20.1782 32.684C21.0422 31.028 21.8162 29.426 22.5002 27.878C23.2202 26.294 23.8502 24.89 24.3902 23.666C24.9302 22.406 25.3262 21.434 25.5782 20.75C26.0102 19.67 26.5862 18.356 27.3062 16.808C28.0622 15.26 28.8902 13.712 29.7902 12.164C30.7262 10.58 31.6802 9.21201 32.6522 8.06001C33.6242 6.87201 34.5602 6.11601 35.4602 5.79201C34.8842 5.61201 34.1282 5.504 33.1922 5.468C32.2922 5.396 31.3922 5.36 30.4922 5.36C29.7362 5.36 29.0342 5.378 28.3862 5.414C27.7742 5.414 27.2882 5.45 26.9282 5.52201C25.3082 5.774 23.6522 6.188 21.9602 6.76401C20.2682 7.34 18.7922 8.02401 17.5322 8.81601C16.3082 9.572 15.5342 10.418 15.2102 11.354C15.1742 11.462 15.1022 11.516 14.9942 11.516C14.6702 11.516 14.5082 11.264 14.5082 10.76C14.5082 10.652 14.5442 10.49 14.6162 10.274C14.9402 9.33801 15.3362 8.51 15.8042 7.79C16.3082 7.07 16.8122 6.458 17.3162 5.954C18.5042 4.73 19.8362 3.992 21.3122 3.74C22.7882 3.452 24.3542 3.30801 26.0102 3.30801H28.5482L40.6982 3.362C39.5822 4.19 38.6282 4.928 37.8362 5.576C37.0802 6.224 36.3962 6.908 35.7842 7.628C35.2082 8.312 34.6502 9.158 34.1102 10.166C33.5702 11.138 32.9942 12.38 32.3822 13.892C31.7702 15.368 31.0682 17.222 30.2762 19.454C29.8442 20.678 29.3042 22.28 28.6562 24.26C28.0442 26.204 27.3062 28.346 26.4422 30.686C25.6142 32.99 24.6422 35.294 23.5262 37.598C22.4462 39.866 21.2222 41.954 19.8542 43.862C18.5222 45.77 17.0282 47.3 15.3722 48.452C13.7162 49.604 11.9162 50.18 9.97216 50.18Z" fill="black"/>
<path d="M46.2964 41.324C45.0724 41.324 44.2264 40.964 43.7584 40.244C43.3264 39.488 43.1104 38.624 43.1104 37.652C43.1104 36.608 43.2724 35.402 43.5964 34.034C43.9564 32.63 44.3884 31.19 44.8924 29.714C45.4324 28.202 45.9724 26.798 46.5124 25.502C46.6924 25.07 46.8544 24.602 46.9984 24.098C47.1784 23.594 47.2684 23.144 47.2684 22.748C47.2684 22.028 46.9444 21.668 46.2964 21.668C46.0444 21.668 45.7564 21.722 45.4324 21.83C45.1084 21.902 44.7304 22.064 44.2984 22.316C43.5424 22.676 42.8224 23.18 42.1384 23.828C41.4544 24.44 40.9864 24.908 40.7344 25.232C40.2664 25.808 39.8164 26.456 39.3844 27.176C38.9524 27.86 38.5744 28.562 38.2504 29.282C37.5304 30.83 36.9544 32.306 36.5224 33.71C36.1264 35.078 35.7484 36.248 35.3884 37.22C35.1724 37.832 34.9564 38.462 34.7404 39.11C34.5244 39.758 34.3264 40.388 34.1464 41H28.9084C28.9084 41 29.0344 40.55 29.2864 39.65C29.5384 38.75 29.8444 37.85 30.2044 36.95C31.8604 32.666 33.4264 28.292 34.9024 23.828C36.3784 19.364 38.1604 15.08 40.2484 10.976C41.1844 9.14 42.1924 7.448 43.2724 5.9C44.3884 4.352 45.5584 3.128 46.7824 2.228C48.0424 1.292 49.3564 0.824005 50.7244 0.824005C51.8044 0.824005 52.5424 1.076 52.9384 1.58C53.3704 2.04801 53.5864 2.642 53.5864 3.362C53.5864 4.154 53.4244 4.982 53.1004 5.846C52.7764 6.71 52.4524 7.448 52.1284 8.06001C51.4804 9.35601 50.6344 10.814 49.5904 12.434C48.5464 14.054 47.4484 15.566 46.2964 16.97C46.0444 17.294 45.6124 17.816 45.0004 18.536C44.3884 19.22 43.7584 19.922 43.1104 20.642C42.4984 21.362 42.0124 21.92 41.6524 22.316C42.8404 21.452 43.8664 20.786 44.7304 20.318C45.5944 19.85 46.3324 19.526 46.9444 19.346C47.9884 19.058 48.8524 18.914 49.5364 18.914C51.5884 18.914 52.6144 19.814 52.6144 21.614C52.6144 22.37 52.3984 23.27 51.9664 24.314C51.7504 24.89 51.4444 25.664 51.0484 26.636C50.6524 27.608 50.2384 28.652 49.8064 29.768C49.4104 30.848 49.0684 31.892 48.7804 32.9C48.5284 33.908 48.4024 34.736 48.4024 35.384C48.4024 35.78 48.4564 36.14 48.5644 36.464C48.7084 36.752 48.9604 36.896 49.3204 36.896C49.5724 36.896 49.9324 36.77 50.4004 36.518C51.4084 35.942 52.3444 35.132 53.2084 34.088C54.1084 33.044 54.9004 31.928 55.5844 30.74C56.3044 29.552 56.9164 28.472 57.4204 27.5C57.5284 27.248 57.6544 27.122 57.7984 27.122C57.9784 27.122 58.0684 27.428 58.0684 28.04C58.0684 28.328 58.0324 28.67 57.9604 29.066C57.8884 29.426 57.7444 29.786 57.5284 30.146C57.0244 31.01 56.3584 32.072 55.5304 33.332C54.7384 34.592 53.8384 35.834 52.8304 37.058C51.8224 38.246 50.7604 39.254 49.6444 40.082C48.5284 40.91 47.4124 41.324 46.2964 41.324ZM40.0864 21.938C41.8864 19.814 43.7044 17.546 45.5404 15.134C47.4124 12.686 48.9604 10.202 50.1844 7.682C50.2564 7.502 50.4184 7.142 50.6704 6.60201C50.9224 6.06201 51.1564 5.468 51.3724 4.82C51.5884 4.136 51.6964 3.56001 51.6964 3.092C51.6964 2.48 51.4624 2.174 50.9944 2.174C50.5264 2.174 49.9684 2.498 49.3204 3.146C48.7084 3.794 48.0784 4.658 47.4304 5.738C46.6024 7.106 45.7564 8.69001 44.8924 10.49C44.0284 12.254 43.1824 14.126 42.3544 16.106C41.5624 18.086 40.8064 20.03 40.0864 21.938Z" fill="black"/>
<path d="M61.6582 41.432C60.0022 41.432 58.5622 40.91 57.3382 39.866C56.1502 38.822 55.5562 37.148 55.5562 34.844C55.5562 33.152 55.8622 31.388 56.4742 29.552C57.0862 27.716 57.9502 26.006 59.0662 24.422C60.2182 22.838 61.6042 21.542 63.2242 20.534C64.8442 19.526 66.6622 19.022 68.6782 19.022C70.3342 19.022 71.6122 19.346 72.5122 19.994C73.4482 20.606 74.1142 21.434 74.5102 22.478C74.9062 23.522 75.1042 24.638 75.1042 25.826C75.1042 26.726 74.9962 27.644 74.7802 28.58C74.6002 29.48 74.3302 30.38 73.9702 31.28C74.5822 32 75.3562 32.36 76.2922 32.36C77.3002 32.36 78.2362 31.982 79.1002 31.226C79.6042 30.794 80.0542 30.254 80.4502 29.606C80.8822 28.922 81.2602 28.292 81.5842 27.716C81.6922 27.5 81.8182 27.392 81.9622 27.392C82.1422 27.392 82.2322 27.644 82.2322 28.148C82.2322 28.472 82.1782 28.85 82.0702 29.282C81.9982 29.714 81.8182 30.146 81.5302 30.578C80.9902 31.514 80.4322 32.234 79.8562 32.738C79.2802 33.206 78.6322 33.584 77.9122 33.872C77.3722 34.088 76.7962 34.196 76.1842 34.196C75.0682 34.196 74.0602 33.854 73.1602 33.17C72.8722 33.782 72.5122 34.412 72.0802 35.06C71.0362 36.824 69.6862 38.336 68.0302 39.596C66.3742 40.82 64.2502 41.432 61.6582 41.432ZM63.7102 39.38C64.5382 39.38 65.3302 39.11 66.0862 38.57C66.8782 37.994 67.5982 37.292 68.2462 36.464C68.8942 35.636 69.4522 34.772 69.9202 33.872C70.4242 32.972 70.8382 32.18 71.1622 31.496C69.9382 30.452 69.3262 29.138 69.3262 27.554C69.3262 26.51 69.6142 25.7 70.1902 25.124C70.7662 24.548 71.5582 24.296 72.5662 24.368C72.5302 23.54 72.3142 22.856 71.9182 22.316C71.5222 21.776 70.8742 21.506 69.9742 21.506C69.1462 21.506 68.3542 21.758 67.5982 22.262C66.8782 22.766 66.1942 23.414 65.5462 24.206C64.9342 24.962 64.3762 25.754 63.8722 26.582C63.4042 27.374 63.0082 28.094 62.6842 28.742C62.2162 29.678 61.7842 30.812 61.3882 32.144C60.9922 33.476 60.7942 34.718 60.7942 35.87C60.7942 36.878 60.9922 37.724 61.3882 38.408C61.8202 39.056 62.5942 39.38 63.7102 39.38Z" fill="black"/>
</g>
<defs>
<filter id="filter0_bd_46_16" x="0.410156" y="-3.17599" width="85.8223" height="61.356" filterUnits="userSpaceOnUse" color-interpolation-filters="sRGB">
<feFlood flood-opacity="0" result="BackgroundImageFix"/>
<feGaussianBlur in="BackgroundImageFix" stdDeviation="2"/>
<feComposite in2="SourceAlpha" operator="in" result="effect1_backgroundBlur_46_16"/>
<feColorMatrix in="SourceAlpha" type="matrix" values="0 0 0 0 0 0 0 0 0 0 0 0 0 0 0 0 0 0 127 0" result="hardAlpha"/>
<feOffset dy="4"/>
<feGaussianBlur stdDeviation="2"/>
<feComposite in2="hardAlpha" operator="out"/>
<feColorMatrix type="matrix" values="0 0 0 0 0 0 0 0 0 0 0 0 0 0 0 0 0 0 0.25 0"/>
<feBlend mode="normal" in2="effect1_backgroundBlur_46_16" result="effect2_dropShadow_46_16"/>
<feBlend mode="normal" in="SourceGraphic" in2="effect2_dropShadow_46_16" result="shape"/>
</filter>
</defs>
</svg>
